Coordinates
nRows=259
nColumns=2
inDegrees=yes
endheader
time	ankle_angle_r	
3.65927	 18.768216	
3.69254	 18.768382	
3.72581	 18.771543	
3.75907	 18.776575	
3.79234	 18.778422	
3.8256	 18.776329	
3.85887	 18.773811	
3.89214	 18.772177	
3.9254	 18.773203	
3.95867	 18.778504	
3.99194	 18.784495	
4.0252	 18.787096	
4.05847	 18.785799	
4.09173	 18.782007	
4.125	 18.779240	
4.15827	 18.779719	
4.19153	 18.780814	
4.2248	 18.779759	
4.25806	 18.777478	
4.29133	 18.776880	
4.3246	 18.779767	
4.35786	 18.784155	
4.39113	 18.786509	
4.4244	 18.786461	
4.45766	 18.785518	
4.49093	 18.784515	
4.52419	 18.785368	
4.55746	 18.788885	
4.59073	 18.791172	
4.62399	 18.788618	
4.65726	 18.781814	
4.69052	 18.773579	
4.72379	 18.769036	
4.75706	 18.770988	
4.79032	 18.774860	
4.82359	 18.776973	
4.85685	 18.778820	
4.89012	 18.780181	
4.92339	 18.780022	
4.95665	 18.779676	
4.98992	 18.779947	
5.02319	 18.782246	
5.05645	 18.787502	
5.08972	 18.791063	
5.12298	 18.788979	
5.15625	 18.783647	
5.18952	 18.777889	
5.22278	 18.774150	
5.25605	 18.774864	
5.28931	 18.777567	
5.32258	 18.778835	
5.35585	 18.779240	
5.38911	 18.779858	
5.42238	 18.781925	
5.45565	 18.785046	
5.48891	 18.783491	
5.52218	 18.775388	
5.55544	 18.768114	
5.58871	 18.767298	
5.62198	 18.772327	
5.65524	 18.779253	
5.68851	 18.781566	
5.72177	 18.777213	
5.75504	 18.770755	
5.78831	 18.765189	
5.82157	 18.762165	
5.85484	 18.764533	
5.8881	 18.772400	
5.92137	 18.783408	
5.95464	 18.793269	
5.9879	 18.796840	
6.02117	 18.795675	
6.05444	 18.795597	
6.0877	 18.797106	
6.12097	 18.798537	
6.15423	 18.799776	
6.1875	 18.799286	
6.22077	 18.797329	
6.25403	 18.795879	
6.2873	 18.792192	
6.32056	 18.783995	
6.35383	 18.776993	
6.3871	 18.777544	
6.42036	 18.783644	
6.45363	 18.788424	
6.4869	 18.788328	
6.52016	 18.784177	
6.55343	 18.777073	
6.58669	 18.769482	
6.61996	 18.767582	
6.65323	 18.773999	
6.68649	 18.784472	
6.71976	 18.794442	
6.75302	 18.798014	
6.78629	 18.788996	
6.81956	 18.772022	
6.85282	 18.759221	
6.88609	 18.755960	
6.91935	 18.759174	
6.95262	 18.761963	
6.98589	 18.758472	
7.01915	 18.750338	
7.05242	 18.743432	
7.08569	 18.741076	
7.11895	 18.743596	
7.15222	 18.747409	
7.18548	 18.748179	
7.21875	 18.745502	
7.25202	 18.740376	
7.28528	 18.735960	
7.31855	 18.736893	
7.35181	 18.740620	
7.38508	 18.741386	
7.41835	 18.741252	
7.45161	 18.744396	
7.48488	 18.749377	
7.51815	 18.753184	
7.55141	 18.753248	
7.58468	 18.747764	
7.61794	 18.739654	
7.65121	 18.733966	
7.68448	 18.731977	
7.71774	 18.732650	
7.75101	 18.736287	
7.78427	 18.743516	
7.81754	 18.751142	
7.85081	 18.753080	
7.88407	 18.748649	
7.91734	 18.743165	
7.9506	 18.738391	
7.98387	 18.733351	
8.01714	 18.731034	
8.0504	 18.732835	
8.08367	 18.734745	
8.11694	 18.733872	
8.1502	 18.731576	
8.18347	 18.731987	
8.21673	 18.737713	
8.25	 18.745214	
8.28327	 18.750366	
8.31653	 18.754819	
8.3498	 18.760362	
8.38306	 18.765859	
8.41633	 18.769774	
8.4496	 18.769724	
8.48286	 18.766678	
8.51613	 18.765995	
8.5494	 18.768399	
8.58266	 18.771179	
8.61593	 18.775364	
8.64919	 18.780384	
8.68246	 18.782203	
8.71573	 18.780509	
8.74899	 18.777404	
8.78226	 18.773785	
8.81552	 18.770568	
8.84879	 18.767191	
8.88206	 18.762226	
8.91532	 18.756402	
8.94859	 18.751246	
8.98185	 18.750221	
9.01512	 18.757304	
9.04839	 18.768853	
9.08165	 18.778046	
9.11492	 18.784216	
9.14819	 18.788328	
9.18145	 18.789662	
9.21472	 18.788803	
9.24798	 18.786668	
9.28125	 18.784925	
9.31452	 18.785890	
9.34778	 18.787426	
9.38105	 18.785303	
9.41431	 18.780716	
9.44758	 18.778105	
9.48085	 18.778818	
9.51411	 18.781034	
9.54738	 18.782612	
9.58065	 18.782834	
9.61391	 18.780780	
9.64718	 18.772618	
9.68044	 18.757826	
9.71371	 18.744252	
9.74698	 18.737373	
9.78024	 18.734096	
9.81351	 18.731488	
9.84677	 18.730210	
9.88004	 18.731193	
9.91331	 18.733776	
9.94657	 18.734446	
9.97984	 18.731781	
10.0131	 18.729407	
10.0464	 18.728146	
10.0796	 18.726058	
10.1129	 18.725637	
10.1462	 18.728934	
10.1794	 18.732831	
10.2127	 18.734398	
10.246	 18.732196	
10.2792	 18.726484	
10.3125	 18.721695	
10.3458	 18.720714	
10.379	 18.721883	
10.4123	 18.724889	
10.4456	 18.729277	
10.4788	 18.731834	
10.5121	 18.732539	
10.5454	 18.733308	
10.5786	 18.733246	
10.6119	 18.732202	
10.6452	 18.730884	
10.6784	 18.728865	
10.7117	 18.727172	
10.745	 18.726650	
10.7782	 18.726314	
10.8115	 18.726807	
10.8448	 18.728946	
10.878	 18.731858	
10.9113	 18.735814	
10.9446	 18.740970	
10.9778	 18.747092	
11.0111	 18.755464	
11.0444	 18.763870	
11.0776	 18.766512	
11.1109	 18.764198	
11.1442	 18.763823	
11.1774	 18.768506	
11.2107	 18.776567	
11.244	 18.783567	
11.2772	 18.785839	
11.3105	 18.785498	
11.3437	 18.784872	
11.377	 18.782730	
11.4103	 18.780518	
11.4435	 18.781050	
11.4768	 18.784156	
11.5101	 18.789055	
11.5433	 18.793454	
11.5766	 18.794274	
11.6099	 18.793351	
11.6431	 18.794494	
11.6764	 18.798405	
11.7097	 18.803190	
11.7429	 18.804736	
11.7762	 18.801685	
11.8095	 18.797665	
11.8427	 18.792749	
11.876	 18.783648	
11.9093	 18.772310	
11.9425	 18.763704	
11.9758	 18.760215	
12.0091	 18.760528	
12.0423	 18.759506	
12.0756	 18.753426	
12.1089	 18.744773	
12.1421	 18.739508	
12.1754	 18.742789	
12.2087	 18.754148	
12.2419	 18.768322	
